<svg width="95" height="46" viewBox="0 0 95 46" fill="none" xmlns="http://www.w3.org/2000/svg">
<path d="M23.5 0.5H71.5C83.9264 0.5 94 10.5736 94 23C94 35.4264 83.9264 45.5 71.5 45.5H23.5C11.0736 45.5 1 35.4264 1 23C1 10.5736 11.0736 0.5 23.5 0.5Z" fill="url(#paint0_linear_55_1347)" fill-opacity="0.29"/>
<path d="M23.5 0.5H71.5C83.9264 0.5 94 10.5736 94 23C94 35.4264 83.9264 45.5 71.5 45.5H23.5C11.0736 45.5 1 35.4264 1 23C1 10.5736 11.0736 0.5 23.5 0.5Z" stroke="black"/>
<circle cx="70" cy="22.5" r="17.5" fill="#253DF3"/>
<defs>
<linearGradient id="paint0_linear_55_1347" x1="0.5" y1="23" x2="94.5" y2="23" gradientUnits="userSpaceOnUse">
<stop stop-color="#E31C9C"/>
<stop offset="0.322213" stop-color="#AA44BC"/>
<stop offset="1" stop-color="#3940ED"/>
</linearGradient>
</defs>
</svg>
