<svg width="20" height="20" viewBox="0 0 20 20" fill="none" xmlns="http://www.w3.org/2000/svg">
<g clip-path="url(#clip0_1_236)">
<path d="M11.09 20H8.90002C8.90002 19.92 8.83002 19.93 8.77002 19.92C7.99888 19.8377 7.24219 19.6527 6.52002 19.37V0.67C7.39754 0.333479 8.32176 0.134468 9.26002 0.08C9.32002 0.08 9.40002 0.08 9.41002 0H10.58C10.58 0.07 10.64 0.08 10.7 0.08C10.8532 0.0703811 11.0068 0.0703811 11.16 0.08C11.9543 0.165699 12.7341 0.353933 13.48 0.64C13.48 0.71 13.48 0.78 13.48 0.85V19.16C13.48 19.23 13.48 19.3 13.48 19.37C12.8343 19.6158 12.1637 19.7902 11.48 19.89C11.34 19.91 11.18 19.85 11.09 20Z" fill="#EFEFEF"/>
<path d="M6.52 0.670013V19.37C6.07109 19.2137 5.63621 19.0197 5.22 18.79C3.85869 18.0576 2.6876 17.0169 1.80032 15.7511C0.913033 14.4853 0.334171 13.0295 0.11 11.5C0.0985689 11.2765 0.0616633 11.0551 0 10.84L0 9.20001C0.05 9.20001 0 9.14001 0 9.10001C0.0520521 8.68579 0.128856 8.27506 0.23 7.87001C0.583497 6.23568 1.34601 4.7178 2.44612 3.45853C3.54623 2.19926 4.94795 1.2398 6.52 0.670013Z" fill="#0052B3"/>
<path d="M13.48 0.670013C14.927 1.18451 16.2315 2.03455 17.2866 3.15048C18.3417 4.26641 19.1174 5.61647 19.55 7.09001C20.307 9.5146 20.107 12.137 18.9912 14.4188C17.8754 16.7005 15.9285 18.4686 13.55 19.36C13.55 19.29 13.55 19.22 13.55 19.15V0.880013C13.47 0.810013 13.48 0.740013 13.48 0.670013Z" fill="#D70027"/>
</g>
<defs>
<clipPath id="clip0_1_236">
<rect width="20" height="20" fill="white"/>
</clipPath>
</defs>
</svg>
