<svg width="24" height="25" viewBox="0 0 24 25" fill="none" xmlns="http://www.w3.org/2000/svg">
<path d="M13.4 11.9V6.89999C13.4 6.63478 13.2946 6.38042 13.1071 6.19289C12.9196 6.00535 12.6652 5.89999 12.4 5.89999C12.1348 5.89999 11.8804 6.00535 11.6929 6.19289C11.5054 6.38042 11.4 6.63478 11.4 6.89999V11.9H6.39999C6.13478 11.9 5.88042 12.0054 5.69289 12.1929C5.50535 12.3804 5.39999 12.6348 5.39999 12.9C5.39999 13.1652 5.50535 13.4196 5.69289 13.6071C5.88042 13.7946 6.13478 13.9 6.39999 13.9H11.4V18.9C11.4 19.1652 11.5054 19.4196 11.6929 19.6071C11.8804 19.7946 12.1348 19.9 12.4 19.9C12.6652 19.9 12.9196 19.7946 13.1071 19.6071C13.2946 19.4196 13.4 19.1652 13.4 18.9V13.9H18.4C18.6652 13.9 18.9196 13.7946 19.1071 13.6071C19.2946 13.4196 19.4 13.1652 19.4 12.9C19.4 12.6348 19.2946 12.3804 19.1071 12.1929C18.9196 12.0054 18.6652 11.9 18.4 11.9H13.4Z" fill="#2563EB"/>
</svg>
