<svg width="21" height="20" viewBox="0 0 21 20" fill="none" xmlns="http://www.w3.org/2000/svg">
<path fill-rule="evenodd" clip-rule="evenodd" d="M2.55752 5.80764C2.61558 5.74944 2.68455 5.70326 2.76048 5.67175C2.83641 5.64024 2.91781 5.62402 3.00002 5.62402C3.08223 5.62402 3.16363 5.64024 3.23956 5.67175C3.31549 5.70326 3.38446 5.74944 3.44252 5.80764L10.5 12.8664L17.5575 5.80764C17.6156 5.74953 17.6846 5.70343 17.7605 5.67199C17.8365 5.64054 17.9178 5.62435 18 5.62435C18.0822 5.62435 18.1636 5.64054 18.2395 5.67199C18.3154 5.70343 18.3844 5.74953 18.4425 5.80764C18.5006 5.86575 18.5467 5.93474 18.5782 6.01066C18.6096 6.08659 18.6258 6.16796 18.6258 6.25014C18.6258 6.33232 18.6096 6.4137 18.5782 6.48962C18.5467 6.56554 18.5006 6.63453 18.4425 6.69264L10.9425 14.1926C10.8845 14.2508 10.8155 14.297 10.7396 14.3285C10.6636 14.36 10.5822 14.3763 10.5 14.3763C10.4178 14.3763 10.3364 14.36 10.2605 14.3285C10.1845 14.297 10.1156 14.2508 10.0575 14.1926L2.55752 6.69264C2.49931 6.63458 2.45314 6.56561 2.42163 6.48968C2.39012 6.41375 2.3739 6.33235 2.3739 6.25014C2.3739 6.16793 2.39012 6.08653 2.42163 6.0106C2.45314 5.93467 2.49931 5.8657 2.55752 5.80764Z" fill="#212529"/>
</svg>
